<mxfile host="app.diagrams.net" modified="2023-05-19T14:33:42.893Z" agent="Mozilla/5.0 (Windows NT 10.0; Win64; x64) AppleWebKit/537.36 (KHTML, like Gecko) Chrome/112.0.0.0 Safari/537.36 OPR/98.0.0.0" etag="iSepZu5wQ8twOgxbeNwn" version="21.3.0">
  <diagram name="Страница 1" id="f8kAH-ra3EAQiN9gtXa5">
    <mxGraphModel dx="1050" dy="573" grid="0" gridSize="10" guides="1" tooltips="1" connect="1" arrows="1" fold="1" page="1" pageScale="1" pageWidth="827" pageHeight="1169" math="0" shadow="0">
      <root>
        <mxCell id="0" />
        <mxCell id="1" parent="0" />
        <mxCell id="9QSZTgEb_2RTZvT8DhTI-1" value="1" style="ellipse;whiteSpace=wrap;html=1;aspect=fixed;" vertex="1" parent="1">
          <mxGeometry x="158" y="72" width="47" height="47" as="geometry" />
        </mxCell>
        <mxCell id="9QSZTgEb_2RTZvT8DhTI-3" value="" style="edgeStyle=orthogonalEdgeStyle;rounded=0;orthogonalLoop=1;jettySize=auto;html=1;" edge="1" parent="1" source="9QSZTgEb_2RTZvT8DhTI-2" target="9QSZTgEb_2RTZvT8DhTI-1">
          <mxGeometry relative="1" as="geometry" />
        </mxCell>
        <mxCell id="9QSZTgEb_2RTZvT8DhTI-2" value="0" style="ellipse;whiteSpace=wrap;html=1;aspect=fixed;" vertex="1" parent="1">
          <mxGeometry x="73" y="72" width="47" height="47" as="geometry" />
        </mxCell>
        <mxCell id="9QSZTgEb_2RTZvT8DhTI-9" value="" style="edgeStyle=orthogonalEdgeStyle;rounded=0;orthogonalLoop=1;jettySize=auto;html=1;" edge="1" parent="1" source="9QSZTgEb_2RTZvT8DhTI-5" target="9QSZTgEb_2RTZvT8DhTI-7">
          <mxGeometry relative="1" as="geometry" />
        </mxCell>
        <mxCell id="9QSZTgEb_2RTZvT8DhTI-5" value="2" style="ellipse;whiteSpace=wrap;html=1;aspect=fixed;" vertex="1" parent="1">
          <mxGeometry x="235" y="16" width="47" height="47" as="geometry" />
        </mxCell>
        <mxCell id="9QSZTgEb_2RTZvT8DhTI-6" value="" style="endArrow=classic;html=1;rounded=0;exitX=1;exitY=0;exitDx=0;exitDy=0;entryX=0.059;entryY=0.767;entryDx=0;entryDy=0;entryPerimeter=0;" edge="1" parent="1" source="9QSZTgEb_2RTZvT8DhTI-1" target="9QSZTgEb_2RTZvT8DhTI-5">
          <mxGeometry width="50" height="50" relative="1" as="geometry">
            <mxPoint x="232" y="127" as="sourcePoint" />
            <mxPoint x="282" y="77" as="targetPoint" />
          </mxGeometry>
        </mxCell>
        <mxCell id="9QSZTgEb_2RTZvT8DhTI-20" value="" style="edgeStyle=orthogonalEdgeStyle;rounded=0;orthogonalLoop=1;jettySize=auto;html=1;" edge="1" parent="1" source="9QSZTgEb_2RTZvT8DhTI-7" target="9QSZTgEb_2RTZvT8DhTI-18">
          <mxGeometry relative="1" as="geometry" />
        </mxCell>
        <mxCell id="9QSZTgEb_2RTZvT8DhTI-7" value="3" style="ellipse;whiteSpace=wrap;html=1;aspect=fixed;" vertex="1" parent="1">
          <mxGeometry x="326" y="16" width="47" height="47" as="geometry" />
        </mxCell>
        <mxCell id="9QSZTgEb_2RTZvT8DhTI-10" value="" style="edgeStyle=orthogonalEdgeStyle;rounded=0;orthogonalLoop=1;jettySize=auto;html=1;" edge="1" parent="1" source="9QSZTgEb_2RTZvT8DhTI-11" target="9QSZTgEb_2RTZvT8DhTI-12">
          <mxGeometry relative="1" as="geometry" />
        </mxCell>
        <mxCell id="9QSZTgEb_2RTZvT8DhTI-11" value="4" style="ellipse;whiteSpace=wrap;html=1;aspect=fixed;" vertex="1" parent="1">
          <mxGeometry x="235" y="127" width="47" height="47" as="geometry" />
        </mxCell>
        <mxCell id="9QSZTgEb_2RTZvT8DhTI-34" value="" style="edgeStyle=orthogonalEdgeStyle;rounded=0;orthogonalLoop=1;jettySize=auto;html=1;" edge="1" parent="1" source="9QSZTgEb_2RTZvT8DhTI-12" target="9QSZTgEb_2RTZvT8DhTI-32">
          <mxGeometry relative="1" as="geometry" />
        </mxCell>
        <mxCell id="9QSZTgEb_2RTZvT8DhTI-12" value="5" style="ellipse;whiteSpace=wrap;html=1;aspect=fixed;" vertex="1" parent="1">
          <mxGeometry x="326" y="127" width="47" height="47" as="geometry" />
        </mxCell>
        <mxCell id="9QSZTgEb_2RTZvT8DhTI-13" value="" style="endArrow=classic;html=1;rounded=0;exitX=0.792;exitY=0.904;exitDx=0;exitDy=0;exitPerimeter=0;entryX=0;entryY=0.5;entryDx=0;entryDy=0;" edge="1" parent="1" source="9QSZTgEb_2RTZvT8DhTI-1" target="9QSZTgEb_2RTZvT8DhTI-11">
          <mxGeometry width="50" height="50" relative="1" as="geometry">
            <mxPoint x="190" y="142" as="sourcePoint" />
            <mxPoint x="240" y="92" as="targetPoint" />
          </mxGeometry>
        </mxCell>
        <mxCell id="9QSZTgEb_2RTZvT8DhTI-17" value="" style="edgeStyle=orthogonalEdgeStyle;rounded=0;orthogonalLoop=1;jettySize=auto;html=1;" edge="1" parent="1" source="9QSZTgEb_2RTZvT8DhTI-18" target="9QSZTgEb_2RTZvT8DhTI-19">
          <mxGeometry relative="1" as="geometry" />
        </mxCell>
        <mxCell id="9QSZTgEb_2RTZvT8DhTI-18" value="6" style="ellipse;whiteSpace=wrap;html=1;aspect=fixed;" vertex="1" parent="1">
          <mxGeometry x="422" y="16" width="47" height="47" as="geometry" />
        </mxCell>
        <mxCell id="9QSZTgEb_2RTZvT8DhTI-59" value="" style="edgeStyle=orthogonalEdgeStyle;rounded=0;orthogonalLoop=1;jettySize=auto;html=1;" edge="1" parent="1" source="9QSZTgEb_2RTZvT8DhTI-19" target="9QSZTgEb_2RTZvT8DhTI-58">
          <mxGeometry relative="1" as="geometry" />
        </mxCell>
        <mxCell id="9QSZTgEb_2RTZvT8DhTI-19" value="7" style="ellipse;whiteSpace=wrap;html=1;aspect=fixed;" vertex="1" parent="1">
          <mxGeometry x="513" y="16" width="47" height="47" as="geometry" />
        </mxCell>
        <mxCell id="9QSZTgEb_2RTZvT8DhTI-26" value="" style="endArrow=classic;html=1;rounded=0;entryX=0;entryY=1;entryDx=0;entryDy=0;exitX=1;exitY=0;exitDx=0;exitDy=0;" edge="1" parent="1" source="9QSZTgEb_2RTZvT8DhTI-12" target="9QSZTgEb_2RTZvT8DhTI-18">
          <mxGeometry width="50" height="50" relative="1" as="geometry">
            <mxPoint x="367" y="131" as="sourcePoint" />
            <mxPoint x="394" y="109" as="targetPoint" />
          </mxGeometry>
        </mxCell>
        <mxCell id="9QSZTgEb_2RTZvT8DhTI-32" value="8" style="ellipse;whiteSpace=wrap;html=1;aspect=fixed;" vertex="1" parent="1">
          <mxGeometry x="422" y="127" width="47" height="47" as="geometry" />
        </mxCell>
        <mxCell id="9QSZTgEb_2RTZvT8DhTI-64" value="" style="edgeStyle=orthogonalEdgeStyle;rounded=0;orthogonalLoop=1;jettySize=auto;html=1;" edge="1" parent="1" source="9QSZTgEb_2RTZvT8DhTI-33" target="9QSZTgEb_2RTZvT8DhTI-52">
          <mxGeometry relative="1" as="geometry" />
        </mxCell>
        <mxCell id="9QSZTgEb_2RTZvT8DhTI-33" value="10" style="ellipse;whiteSpace=wrap;html=1;aspect=fixed;" vertex="1" parent="1">
          <mxGeometry x="418" y="210" width="47" height="47" as="geometry" />
        </mxCell>
        <mxCell id="9QSZTgEb_2RTZvT8DhTI-37" value="" style="endArrow=classic;html=1;rounded=0;exitX=0.76;exitY=0.927;exitDx=0;exitDy=0;exitPerimeter=0;entryX=0;entryY=0.5;entryDx=0;entryDy=0;" edge="1" parent="1" source="9QSZTgEb_2RTZvT8DhTI-12" target="9QSZTgEb_2RTZvT8DhTI-33">
          <mxGeometry width="50" height="50" relative="1" as="geometry">
            <mxPoint x="393" y="234" as="sourcePoint" />
            <mxPoint x="443" y="184" as="targetPoint" />
          </mxGeometry>
        </mxCell>
        <mxCell id="9QSZTgEb_2RTZvT8DhTI-43" value="" style="endArrow=classic;html=1;rounded=0;exitX=0.5;exitY=1;exitDx=0;exitDy=0;" edge="1" parent="1" source="9QSZTgEb_2RTZvT8DhTI-7" target="9QSZTgEb_2RTZvT8DhTI-33">
          <mxGeometry width="50" height="50" relative="1" as="geometry">
            <mxPoint x="620" y="144" as="sourcePoint" />
            <mxPoint x="670" y="94" as="targetPoint" />
          </mxGeometry>
        </mxCell>
        <mxCell id="9QSZTgEb_2RTZvT8DhTI-49" value="" style="edgeStyle=orthogonalEdgeStyle;rounded=0;orthogonalLoop=1;jettySize=auto;html=1;" edge="1" parent="1" target="9QSZTgEb_2RTZvT8DhTI-50">
          <mxGeometry relative="1" as="geometry">
            <mxPoint x="469" y="151" as="sourcePoint" />
          </mxGeometry>
        </mxCell>
        <mxCell id="9QSZTgEb_2RTZvT8DhTI-77" value="" style="edgeStyle=orthogonalEdgeStyle;rounded=0;orthogonalLoop=1;jettySize=auto;html=1;" edge="1" parent="1" source="9QSZTgEb_2RTZvT8DhTI-50" target="9QSZTgEb_2RTZvT8DhTI-72">
          <mxGeometry relative="1" as="geometry" />
        </mxCell>
        <mxCell id="9QSZTgEb_2RTZvT8DhTI-50" value="9" style="ellipse;whiteSpace=wrap;html=1;aspect=fixed;" vertex="1" parent="1">
          <mxGeometry x="513" y="128" width="47" height="47" as="geometry" />
        </mxCell>
        <mxCell id="9QSZTgEb_2RTZvT8DhTI-80" value="" style="edgeStyle=orthogonalEdgeStyle;rounded=0;orthogonalLoop=1;jettySize=auto;html=1;" edge="1" parent="1" source="9QSZTgEb_2RTZvT8DhTI-52" target="9QSZTgEb_2RTZvT8DhTI-75">
          <mxGeometry relative="1" as="geometry" />
        </mxCell>
        <mxCell id="9QSZTgEb_2RTZvT8DhTI-52" value="11" style="ellipse;whiteSpace=wrap;html=1;aspect=fixed;" vertex="1" parent="1">
          <mxGeometry x="513" y="210" width="47" height="47" as="geometry" />
        </mxCell>
        <mxCell id="9QSZTgEb_2RTZvT8DhTI-62" value="" style="edgeStyle=orthogonalEdgeStyle;rounded=0;orthogonalLoop=1;jettySize=auto;html=1;" edge="1" parent="1" source="9QSZTgEb_2RTZvT8DhTI-58" target="9QSZTgEb_2RTZvT8DhTI-61">
          <mxGeometry relative="1" as="geometry" />
        </mxCell>
        <mxCell id="9QSZTgEb_2RTZvT8DhTI-58" value="12" style="ellipse;whiteSpace=wrap;html=1;aspect=fixed;" vertex="1" parent="1">
          <mxGeometry x="610" y="16" width="47" height="47" as="geometry" />
        </mxCell>
        <mxCell id="9QSZTgEb_2RTZvT8DhTI-60" value="" style="endArrow=classic;html=1;rounded=0;exitX=0.901;exitY=0.215;exitDx=0;exitDy=0;exitPerimeter=0;" edge="1" parent="1" source="9QSZTgEb_2RTZvT8DhTI-52" target="9QSZTgEb_2RTZvT8DhTI-58">
          <mxGeometry width="50" height="50" relative="1" as="geometry">
            <mxPoint x="552" y="220" as="sourcePoint" />
            <mxPoint x="602" y="170" as="targetPoint" />
          </mxGeometry>
        </mxCell>
        <mxCell id="9QSZTgEb_2RTZvT8DhTI-100" value="" style="edgeStyle=orthogonalEdgeStyle;rounded=0;orthogonalLoop=1;jettySize=auto;html=1;" edge="1" parent="1" source="9QSZTgEb_2RTZvT8DhTI-61" target="9QSZTgEb_2RTZvT8DhTI-99">
          <mxGeometry relative="1" as="geometry" />
        </mxCell>
        <mxCell id="9QSZTgEb_2RTZvT8DhTI-61" value="13" style="ellipse;whiteSpace=wrap;html=1;aspect=fixed;" vertex="1" parent="1">
          <mxGeometry x="703" y="16" width="47" height="47" as="geometry" />
        </mxCell>
        <mxCell id="9QSZTgEb_2RTZvT8DhTI-71" value="" style="edgeStyle=orthogonalEdgeStyle;rounded=0;orthogonalLoop=1;jettySize=auto;html=1;" edge="1" parent="1" source="9QSZTgEb_2RTZvT8DhTI-72" target="9QSZTgEb_2RTZvT8DhTI-73">
          <mxGeometry relative="1" as="geometry" />
        </mxCell>
        <mxCell id="9QSZTgEb_2RTZvT8DhTI-72" value="14" style="ellipse;whiteSpace=wrap;html=1;aspect=fixed;" vertex="1" parent="1">
          <mxGeometry x="610" y="128" width="47" height="47" as="geometry" />
        </mxCell>
        <mxCell id="9QSZTgEb_2RTZvT8DhTI-104" value="" style="edgeStyle=orthogonalEdgeStyle;rounded=0;orthogonalLoop=1;jettySize=auto;html=1;" edge="1" parent="1" source="9QSZTgEb_2RTZvT8DhTI-73" target="9QSZTgEb_2RTZvT8DhTI-101">
          <mxGeometry relative="1" as="geometry" />
        </mxCell>
        <mxCell id="9QSZTgEb_2RTZvT8DhTI-73" value="15" style="ellipse;whiteSpace=wrap;html=1;aspect=fixed;" vertex="1" parent="1">
          <mxGeometry x="703" y="128" width="47" height="47" as="geometry" />
        </mxCell>
        <mxCell id="9QSZTgEb_2RTZvT8DhTI-74" value="" style="edgeStyle=orthogonalEdgeStyle;rounded=0;orthogonalLoop=1;jettySize=auto;html=1;" edge="1" parent="1" source="9QSZTgEb_2RTZvT8DhTI-75" target="9QSZTgEb_2RTZvT8DhTI-76">
          <mxGeometry relative="1" as="geometry" />
        </mxCell>
        <mxCell id="9QSZTgEb_2RTZvT8DhTI-75" value="16" style="ellipse;whiteSpace=wrap;html=1;aspect=fixed;" vertex="1" parent="1">
          <mxGeometry x="610" y="210" width="47" height="47" as="geometry" />
        </mxCell>
        <mxCell id="9QSZTgEb_2RTZvT8DhTI-76" value="17" style="ellipse;whiteSpace=wrap;html=1;aspect=fixed;" vertex="1" parent="1">
          <mxGeometry x="703" y="210" width="47" height="47" as="geometry" />
        </mxCell>
        <mxCell id="9QSZTgEb_2RTZvT8DhTI-83" value="" style="endArrow=classic;html=1;rounded=0;exitX=0.737;exitY=0.934;exitDx=0;exitDy=0;exitPerimeter=0;entryX=0;entryY=0;entryDx=0;entryDy=0;" edge="1" parent="1" source="9QSZTgEb_2RTZvT8DhTI-19" target="9QSZTgEb_2RTZvT8DhTI-75">
          <mxGeometry width="50" height="50" relative="1" as="geometry">
            <mxPoint x="653" y="128" as="sourcePoint" />
            <mxPoint x="703" y="78" as="targetPoint" />
          </mxGeometry>
        </mxCell>
        <mxCell id="9QSZTgEb_2RTZvT8DhTI-84" value="" style="endArrow=classic;html=1;rounded=0;exitX=0.951;exitY=0.351;exitDx=0;exitDy=0;exitPerimeter=0;entryX=0;entryY=1;entryDx=0;entryDy=0;" edge="1" parent="1" source="9QSZTgEb_2RTZvT8DhTI-52" target="9QSZTgEb_2RTZvT8DhTI-72">
          <mxGeometry width="50" height="50" relative="1" as="geometry">
            <mxPoint x="649" y="206" as="sourcePoint" />
            <mxPoint x="699" y="156" as="targetPoint" />
          </mxGeometry>
        </mxCell>
        <mxCell id="9QSZTgEb_2RTZvT8DhTI-98" value="" style="endArrow=classic;html=1;rounded=0;exitX=1;exitY=1;exitDx=0;exitDy=0;entryX=0.111;entryY=0.183;entryDx=0;entryDy=0;entryPerimeter=0;" edge="1" parent="1" source="9QSZTgEb_2RTZvT8DhTI-7" target="9QSZTgEb_2RTZvT8DhTI-32">
          <mxGeometry width="50" height="50" relative="1" as="geometry">
            <mxPoint x="441" y="108" as="sourcePoint" />
            <mxPoint x="491" y="58" as="targetPoint" />
          </mxGeometry>
        </mxCell>
        <mxCell id="9QSZTgEb_2RTZvT8DhTI-103" value="" style="edgeStyle=orthogonalEdgeStyle;rounded=0;orthogonalLoop=1;jettySize=auto;html=1;" edge="1" parent="1" source="9QSZTgEb_2RTZvT8DhTI-99" target="9QSZTgEb_2RTZvT8DhTI-102">
          <mxGeometry relative="1" as="geometry" />
        </mxCell>
        <mxCell id="9QSZTgEb_2RTZvT8DhTI-99" value="18" style="ellipse;whiteSpace=wrap;html=1;aspect=fixed;" vertex="1" parent="1">
          <mxGeometry x="823" y="16" width="47" height="47" as="geometry" />
        </mxCell>
        <mxCell id="9QSZTgEb_2RTZvT8DhTI-106" value="" style="edgeStyle=orthogonalEdgeStyle;rounded=0;orthogonalLoop=1;jettySize=auto;html=1;" edge="1" parent="1" source="9QSZTgEb_2RTZvT8DhTI-101" target="9QSZTgEb_2RTZvT8DhTI-105">
          <mxGeometry relative="1" as="geometry" />
        </mxCell>
        <mxCell id="9QSZTgEb_2RTZvT8DhTI-101" value="20" style="ellipse;whiteSpace=wrap;html=1;aspect=fixed;" vertex="1" parent="1">
          <mxGeometry x="823" y="128" width="47" height="47" as="geometry" />
        </mxCell>
        <mxCell id="9QSZTgEb_2RTZvT8DhTI-102" value="19" style="ellipse;whiteSpace=wrap;html=1;aspect=fixed;" vertex="1" parent="1">
          <mxGeometry x="931" y="16" width="47" height="47" as="geometry" />
        </mxCell>
        <mxCell id="9QSZTgEb_2RTZvT8DhTI-105" value="21" style="ellipse;whiteSpace=wrap;html=1;aspect=fixed;" vertex="1" parent="1">
          <mxGeometry x="931" y="128" width="47" height="47" as="geometry" />
        </mxCell>
        <mxCell id="9QSZTgEb_2RTZvT8DhTI-109" value="" style="edgeStyle=orthogonalEdgeStyle;rounded=0;orthogonalLoop=1;jettySize=auto;html=1;" edge="1" parent="1" source="9QSZTgEb_2RTZvT8DhTI-107" target="9QSZTgEb_2RTZvT8DhTI-108">
          <mxGeometry relative="1" as="geometry" />
        </mxCell>
        <mxCell id="9QSZTgEb_2RTZvT8DhTI-107" value="22" style="ellipse;whiteSpace=wrap;html=1;aspect=fixed;" vertex="1" parent="1">
          <mxGeometry x="1059" y="83" width="47" height="47" as="geometry" />
        </mxCell>
        <mxCell id="9QSZTgEb_2RTZvT8DhTI-108" value="23" style="ellipse;whiteSpace=wrap;html=1;aspect=fixed;" vertex="1" parent="1">
          <mxGeometry x="1162" y="83" width="47" height="47" as="geometry" />
        </mxCell>
        <mxCell id="9QSZTgEb_2RTZvT8DhTI-111" value="" style="endArrow=classic;html=1;rounded=0;exitX=1;exitY=0.5;exitDx=0;exitDy=0;entryX=0.033;entryY=0.703;entryDx=0;entryDy=0;entryPerimeter=0;" edge="1" parent="1" source="9QSZTgEb_2RTZvT8DhTI-105" target="9QSZTgEb_2RTZvT8DhTI-107">
          <mxGeometry width="50" height="50" relative="1" as="geometry">
            <mxPoint x="1027" y="212" as="sourcePoint" />
            <mxPoint x="1077" y="162" as="targetPoint" />
          </mxGeometry>
        </mxCell>
        <mxCell id="9QSZTgEb_2RTZvT8DhTI-112" value="" style="endArrow=classic;html=1;rounded=0;exitX=1;exitY=1;exitDx=0;exitDy=0;entryX=0.061;entryY=0.253;entryDx=0;entryDy=0;entryPerimeter=0;" edge="1" parent="1" source="9QSZTgEb_2RTZvT8DhTI-102" target="9QSZTgEb_2RTZvT8DhTI-107">
          <mxGeometry width="50" height="50" relative="1" as="geometry">
            <mxPoint x="995" y="102" as="sourcePoint" />
            <mxPoint x="1045" y="52" as="targetPoint" />
          </mxGeometry>
        </mxCell>
        <mxCell id="9QSZTgEb_2RTZvT8DhTI-113" value="" style="endArrow=classic;html=1;rounded=0;exitX=1;exitY=0.5;exitDx=0;exitDy=0;entryX=0.341;entryY=0.948;entryDx=0;entryDy=0;entryPerimeter=0;" edge="1" parent="1" source="9QSZTgEb_2RTZvT8DhTI-76" target="9QSZTgEb_2RTZvT8DhTI-107">
          <mxGeometry width="50" height="50" relative="1" as="geometry">
            <mxPoint x="993" y="236" as="sourcePoint" />
            <mxPoint x="1043" y="186" as="targetPoint" />
            <Array as="points">
              <mxPoint x="1015" y="237" />
            </Array>
          </mxGeometry>
        </mxCell>
        <mxCell id="9QSZTgEb_2RTZvT8DhTI-114" value="Z1" style="text;html=1;align=center;verticalAlign=middle;resizable=0;points=[];autosize=1;strokeColor=none;fillColor=none;" vertex="1" parent="1">
          <mxGeometry x="121" y="75" width="32" height="26" as="geometry" />
        </mxCell>
        <mxCell id="9QSZTgEb_2RTZvT8DhTI-115" value="1" style="text;html=1;align=center;verticalAlign=middle;resizable=0;points=[];autosize=1;strokeColor=none;fillColor=none;" vertex="1" parent="1">
          <mxGeometry x="123" y="90" width="25" height="26" as="geometry" />
        </mxCell>
        <mxCell id="9QSZTgEb_2RTZvT8DhTI-116" value="Z2" style="text;html=1;align=center;verticalAlign=middle;resizable=0;points=[];autosize=1;strokeColor=none;fillColor=none;" vertex="1" parent="1">
          <mxGeometry x="191" y="49" width="32" height="26" as="geometry" />
        </mxCell>
        <mxCell id="9QSZTgEb_2RTZvT8DhTI-117" value="2" style="text;html=1;align=center;verticalAlign=middle;resizable=0;points=[];autosize=1;strokeColor=none;fillColor=none;" vertex="1" parent="1">
          <mxGeometry x="202" y="63" width="25" height="26" as="geometry" />
        </mxCell>
        <mxCell id="9QSZTgEb_2RTZvT8DhTI-118" value="Z2" style="text;html=1;align=center;verticalAlign=middle;resizable=0;points=[];autosize=1;strokeColor=none;fillColor=none;" vertex="1" parent="1">
          <mxGeometry x="205" y="111" width="32" height="26" as="geometry" />
        </mxCell>
        <mxCell id="9QSZTgEb_2RTZvT8DhTI-119" value="2" style="text;html=1;align=center;verticalAlign=middle;resizable=0;points=[];autosize=1;strokeColor=none;fillColor=none;" vertex="1" parent="1">
          <mxGeometry x="198" y="126" width="25" height="26" as="geometry" />
        </mxCell>
        <mxCell id="9QSZTgEb_2RTZvT8DhTI-120" value="Z3" style="text;html=1;align=center;verticalAlign=middle;resizable=0;points=[];autosize=1;strokeColor=none;fillColor=none;" vertex="1" parent="1">
          <mxGeometry x="287" y="127" width="32" height="26" as="geometry" />
        </mxCell>
        <mxCell id="9QSZTgEb_2RTZvT8DhTI-121" value="3" style="text;html=1;align=center;verticalAlign=middle;resizable=0;points=[];autosize=1;strokeColor=none;fillColor=none;" vertex="1" parent="1">
          <mxGeometry x="290.5" y="145" width="25" height="26" as="geometry" />
        </mxCell>
        <mxCell id="9QSZTgEb_2RTZvT8DhTI-122" value="Z3" style="text;html=1;align=center;verticalAlign=middle;resizable=0;points=[];autosize=1;strokeColor=none;fillColor=none;" vertex="1" parent="1">
          <mxGeometry x="287" y="20" width="32" height="26" as="geometry" />
        </mxCell>
        <mxCell id="9QSZTgEb_2RTZvT8DhTI-123" value="3" style="text;html=1;align=center;verticalAlign=middle;resizable=0;points=[];autosize=1;strokeColor=none;fillColor=none;" vertex="1" parent="1">
          <mxGeometry x="290.5" y="35" width="25" height="26" as="geometry" />
        </mxCell>
        <mxCell id="9QSZTgEb_2RTZvT8DhTI-142" value="Z4" style="text;html=1;align=center;verticalAlign=middle;resizable=0;points=[];autosize=1;strokeColor=none;fillColor=none;" vertex="1" parent="1">
          <mxGeometry x="376" y="16" width="32" height="26" as="geometry" />
        </mxCell>
        <mxCell id="9QSZTgEb_2RTZvT8DhTI-143" value="5" style="text;html=1;align=center;verticalAlign=middle;resizable=0;points=[];autosize=1;strokeColor=none;fillColor=none;" vertex="1" parent="1">
          <mxGeometry x="379.5" y="35" width="25" height="26" as="geometry" />
        </mxCell>
        <mxCell id="9QSZTgEb_2RTZvT8DhTI-144" value="Z5" style="text;html=1;align=center;verticalAlign=middle;resizable=0;points=[];autosize=1;strokeColor=none;fillColor=none;" vertex="1" parent="1">
          <mxGeometry x="365" y="132" width="32" height="26" as="geometry" />
        </mxCell>
        <mxCell id="9QSZTgEb_2RTZvT8DhTI-145" value="5" style="text;html=1;align=center;verticalAlign=middle;resizable=0;points=[];autosize=1;strokeColor=none;fillColor=none;" vertex="1" parent="1">
          <mxGeometry x="368.5" y="145" width="25" height="26" as="geometry" />
        </mxCell>
        <mxCell id="9QSZTgEb_2RTZvT8DhTI-146" value="Z6" style="text;html=1;align=center;verticalAlign=middle;resizable=0;points=[];autosize=1;strokeColor=none;fillColor=none;" vertex="1" parent="1">
          <mxGeometry x="377" y="179" width="32" height="26" as="geometry" />
        </mxCell>
        <mxCell id="9QSZTgEb_2RTZvT8DhTI-147" value="5" style="text;html=1;align=center;verticalAlign=middle;resizable=0;points=[];autosize=1;strokeColor=none;fillColor=none;" vertex="1" parent="1">
          <mxGeometry x="368.5" y="191" width="25" height="26" as="geometry" />
        </mxCell>
        <mxCell id="9QSZTgEb_2RTZvT8DhTI-148" value="Z5" style="text;html=1;align=center;verticalAlign=middle;resizable=0;points=[];autosize=1;strokeColor=none;fillColor=none;" vertex="1" parent="1">
          <mxGeometry x="471" y="18" width="32" height="26" as="geometry" />
        </mxCell>
        <mxCell id="9QSZTgEb_2RTZvT8DhTI-149" value="5" style="text;html=1;align=center;verticalAlign=middle;resizable=0;points=[];autosize=1;strokeColor=none;fillColor=none;" vertex="1" parent="1">
          <mxGeometry x="474" y="38" width="25" height="26" as="geometry" />
        </mxCell>
        <mxCell id="9QSZTgEb_2RTZvT8DhTI-150" value="Z6" style="text;html=1;align=center;verticalAlign=middle;resizable=0;points=[];autosize=1;strokeColor=none;fillColor=none;" vertex="1" parent="1">
          <mxGeometry x="470.5" y="129" width="32" height="26" as="geometry" />
        </mxCell>
        <mxCell id="9QSZTgEb_2RTZvT8DhTI-151" value="5" style="text;html=1;align=center;verticalAlign=middle;resizable=0;points=[];autosize=1;strokeColor=none;fillColor=none;" vertex="1" parent="1">
          <mxGeometry x="473.5" y="149" width="25" height="26" as="geometry" />
        </mxCell>
        <mxCell id="9QSZTgEb_2RTZvT8DhTI-152" value="Z7" style="text;html=1;align=center;verticalAlign=middle;resizable=0;points=[];autosize=1;strokeColor=none;fillColor=none;" vertex="1" parent="1">
          <mxGeometry x="471" y="210" width="32" height="26" as="geometry" />
        </mxCell>
        <mxCell id="9QSZTgEb_2RTZvT8DhTI-153" value="7" style="text;html=1;align=center;verticalAlign=middle;resizable=0;points=[];autosize=1;strokeColor=none;fillColor=none;" vertex="1" parent="1">
          <mxGeometry x="474" y="230" width="25" height="26" as="geometry" />
        </mxCell>
        <mxCell id="9QSZTgEb_2RTZvT8DhTI-154" value="Z6" style="text;html=1;align=center;verticalAlign=middle;resizable=0;points=[];autosize=1;strokeColor=none;fillColor=none;" vertex="1" parent="1">
          <mxGeometry x="567" y="17" width="32" height="26" as="geometry" />
        </mxCell>
        <mxCell id="9QSZTgEb_2RTZvT8DhTI-155" value="5" style="text;html=1;align=center;verticalAlign=middle;resizable=0;points=[];autosize=1;strokeColor=none;fillColor=none;" vertex="1" parent="1">
          <mxGeometry x="570" y="37" width="25" height="26" as="geometry" />
        </mxCell>
        <mxCell id="9QSZTgEb_2RTZvT8DhTI-156" value="Z7" style="text;html=1;align=center;verticalAlign=middle;resizable=0;points=[];autosize=1;strokeColor=none;fillColor=none;" vertex="1" parent="1">
          <mxGeometry x="554" y="127.5" width="32" height="26" as="geometry" />
        </mxCell>
        <mxCell id="9QSZTgEb_2RTZvT8DhTI-157" value="7" style="text;html=1;align=center;verticalAlign=middle;resizable=0;points=[];autosize=1;strokeColor=none;fillColor=none;" vertex="1" parent="1">
          <mxGeometry x="557" y="147.5" width="25" height="26" as="geometry" />
        </mxCell>
        <mxCell id="9QSZTgEb_2RTZvT8DhTI-158" value="Z6" style="text;html=1;align=center;verticalAlign=middle;resizable=0;points=[];autosize=1;strokeColor=none;fillColor=none;" vertex="1" parent="1">
          <mxGeometry x="566.5" y="210" width="32" height="26" as="geometry" />
        </mxCell>
        <mxCell id="9QSZTgEb_2RTZvT8DhTI-159" value="5" style="text;html=1;align=center;verticalAlign=middle;resizable=0;points=[];autosize=1;strokeColor=none;fillColor=none;" vertex="1" parent="1">
          <mxGeometry x="569.5" y="230" width="25" height="26" as="geometry" />
        </mxCell>
        <mxCell id="9QSZTgEb_2RTZvT8DhTI-188" value="Z7" style="text;html=1;align=center;verticalAlign=middle;resizable=0;points=[];autosize=1;strokeColor=none;fillColor=none;" vertex="1" parent="1">
          <mxGeometry x="659" y="18" width="32" height="26" as="geometry" />
        </mxCell>
        <mxCell id="9QSZTgEb_2RTZvT8DhTI-189" value="7" style="text;html=1;align=center;verticalAlign=middle;resizable=0;points=[];autosize=1;strokeColor=none;fillColor=none;" vertex="1" parent="1">
          <mxGeometry x="662.5" y="35" width="25" height="26" as="geometry" />
        </mxCell>
        <mxCell id="9QSZTgEb_2RTZvT8DhTI-190" value="Z7" style="text;html=1;align=center;verticalAlign=middle;resizable=0;points=[];autosize=1;strokeColor=none;fillColor=none;" vertex="1" parent="1">
          <mxGeometry x="657" y="128" width="32" height="26" as="geometry" />
        </mxCell>
        <mxCell id="9QSZTgEb_2RTZvT8DhTI-191" value="7" style="text;html=1;align=center;verticalAlign=middle;resizable=0;points=[];autosize=1;strokeColor=none;fillColor=none;" vertex="1" parent="1">
          <mxGeometry x="660.5" y="145" width="25" height="26" as="geometry" />
        </mxCell>
        <mxCell id="9QSZTgEb_2RTZvT8DhTI-192" value="Z7" style="text;html=1;align=center;verticalAlign=middle;resizable=0;points=[];autosize=1;strokeColor=none;fillColor=none;" vertex="1" parent="1">
          <mxGeometry x="655.5" y="212" width="32" height="26" as="geometry" />
        </mxCell>
        <mxCell id="9QSZTgEb_2RTZvT8DhTI-193" value="7" style="text;html=1;align=center;verticalAlign=middle;resizable=0;points=[];autosize=1;strokeColor=none;fillColor=none;" vertex="1" parent="1">
          <mxGeometry x="659" y="229" width="25" height="26" as="geometry" />
        </mxCell>
        <mxCell id="9QSZTgEb_2RTZvT8DhTI-194" value="Z8" style="text;html=1;align=center;verticalAlign=middle;resizable=0;points=[];autosize=1;strokeColor=none;fillColor=none;" vertex="1" parent="1">
          <mxGeometry x="766" y="18" width="32" height="26" as="geometry" />
        </mxCell>
        <mxCell id="9QSZTgEb_2RTZvT8DhTI-195" value="7" style="text;html=1;align=center;verticalAlign=middle;resizable=0;points=[];autosize=1;strokeColor=none;fillColor=none;" vertex="1" parent="1">
          <mxGeometry x="769.5" y="35" width="25" height="26" as="geometry" />
        </mxCell>
        <mxCell id="9QSZTgEb_2RTZvT8DhTI-196" value="Z8" style="text;html=1;align=center;verticalAlign=middle;resizable=0;points=[];autosize=1;strokeColor=none;fillColor=none;" vertex="1" parent="1">
          <mxGeometry x="766" y="130.5" width="32" height="26" as="geometry" />
        </mxCell>
        <mxCell id="9QSZTgEb_2RTZvT8DhTI-197" value="7" style="text;html=1;align=center;verticalAlign=middle;resizable=0;points=[];autosize=1;strokeColor=none;fillColor=none;" vertex="1" parent="1">
          <mxGeometry x="769.5" y="147.5" width="25" height="26" as="geometry" />
        </mxCell>
        <mxCell id="9QSZTgEb_2RTZvT8DhTI-198" value="Z8" style="text;html=1;align=center;verticalAlign=middle;resizable=0;points=[];autosize=1;strokeColor=none;fillColor=none;" vertex="1" parent="1">
          <mxGeometry x="803" y="212" width="32" height="26" as="geometry" />
        </mxCell>
        <mxCell id="9QSZTgEb_2RTZvT8DhTI-199" value="7" style="text;html=1;align=center;verticalAlign=middle;resizable=0;points=[];autosize=1;strokeColor=none;fillColor=none;" vertex="1" parent="1">
          <mxGeometry x="806.5" y="229" width="25" height="26" as="geometry" />
        </mxCell>
        <mxCell id="9QSZTgEb_2RTZvT8DhTI-240" value="Z4" style="text;html=1;align=center;verticalAlign=middle;resizable=0;points=[];autosize=1;strokeColor=none;fillColor=none;" vertex="1" parent="1">
          <mxGeometry x="372.5" y="61" width="32" height="26" as="geometry" />
        </mxCell>
        <mxCell id="9QSZTgEb_2RTZvT8DhTI-242" value="5" style="text;html=1;align=center;verticalAlign=middle;resizable=0;points=[];autosize=1;strokeColor=none;fillColor=none;" vertex="1" parent="1">
          <mxGeometry x="354.5" y="72" width="25" height="26" as="geometry" />
        </mxCell>
        <mxCell id="9QSZTgEb_2RTZvT8DhTI-248" value="1" style="ellipse;whiteSpace=wrap;html=1;aspect=fixed;" vertex="1" parent="1">
          <mxGeometry x="121" y="433" width="47" height="47" as="geometry" />
        </mxCell>
        <mxCell id="9QSZTgEb_2RTZvT8DhTI-249" value="" style="edgeStyle=orthogonalEdgeStyle;rounded=0;orthogonalLoop=1;jettySize=auto;html=1;" edge="1" parent="1" source="9QSZTgEb_2RTZvT8DhTI-250" target="9QSZTgEb_2RTZvT8DhTI-248">
          <mxGeometry relative="1" as="geometry" />
        </mxCell>
        <mxCell id="9QSZTgEb_2RTZvT8DhTI-250" value="0" style="ellipse;whiteSpace=wrap;html=1;aspect=fixed;" vertex="1" parent="1">
          <mxGeometry x="36" y="433" width="47" height="47" as="geometry" />
        </mxCell>
        <mxCell id="9QSZTgEb_2RTZvT8DhTI-251" value="" style="edgeStyle=orthogonalEdgeStyle;rounded=0;orthogonalLoop=1;jettySize=auto;html=1;" edge="1" parent="1" source="9QSZTgEb_2RTZvT8DhTI-252" target="9QSZTgEb_2RTZvT8DhTI-255">
          <mxGeometry relative="1" as="geometry" />
        </mxCell>
        <mxCell id="9QSZTgEb_2RTZvT8DhTI-252" value="2" style="ellipse;whiteSpace=wrap;html=1;aspect=fixed;" vertex="1" parent="1">
          <mxGeometry x="198" y="377" width="47" height="47" as="geometry" />
        </mxCell>
        <mxCell id="9QSZTgEb_2RTZvT8DhTI-253" value="" style="endArrow=classic;html=1;rounded=0;exitX=1;exitY=0;exitDx=0;exitDy=0;entryX=0.059;entryY=0.767;entryDx=0;entryDy=0;entryPerimeter=0;" edge="1" parent="1" source="9QSZTgEb_2RTZvT8DhTI-248" target="9QSZTgEb_2RTZvT8DhTI-252">
          <mxGeometry width="50" height="50" relative="1" as="geometry">
            <mxPoint x="195" y="488" as="sourcePoint" />
            <mxPoint x="245" y="438" as="targetPoint" />
          </mxGeometry>
        </mxCell>
        <mxCell id="9QSZTgEb_2RTZvT8DhTI-254" value="" style="edgeStyle=orthogonalEdgeStyle;rounded=0;orthogonalLoop=1;jettySize=auto;html=1;" edge="1" parent="1" source="9QSZTgEb_2RTZvT8DhTI-255" target="9QSZTgEb_2RTZvT8DhTI-262">
          <mxGeometry relative="1" as="geometry" />
        </mxCell>
        <mxCell id="9QSZTgEb_2RTZvT8DhTI-255" value="3" style="ellipse;whiteSpace=wrap;html=1;aspect=fixed;" vertex="1" parent="1">
          <mxGeometry x="289" y="377" width="47" height="47" as="geometry" />
        </mxCell>
        <mxCell id="9QSZTgEb_2RTZvT8DhTI-256" value="" style="edgeStyle=orthogonalEdgeStyle;rounded=0;orthogonalLoop=1;jettySize=auto;html=1;" edge="1" parent="1" source="9QSZTgEb_2RTZvT8DhTI-257" target="9QSZTgEb_2RTZvT8DhTI-259">
          <mxGeometry relative="1" as="geometry" />
        </mxCell>
        <mxCell id="9QSZTgEb_2RTZvT8DhTI-257" value="4" style="ellipse;whiteSpace=wrap;html=1;aspect=fixed;" vertex="1" parent="1">
          <mxGeometry x="198" y="488" width="47" height="47" as="geometry" />
        </mxCell>
        <mxCell id="9QSZTgEb_2RTZvT8DhTI-258" value="" style="edgeStyle=orthogonalEdgeStyle;rounded=0;orthogonalLoop=1;jettySize=auto;html=1;" edge="1" parent="1" source="9QSZTgEb_2RTZvT8DhTI-259" target="9QSZTgEb_2RTZvT8DhTI-266">
          <mxGeometry relative="1" as="geometry" />
        </mxCell>
        <mxCell id="9QSZTgEb_2RTZvT8DhTI-259" value="5" style="ellipse;whiteSpace=wrap;html=1;aspect=fixed;" vertex="1" parent="1">
          <mxGeometry x="289" y="488" width="47" height="47" as="geometry" />
        </mxCell>
        <mxCell id="9QSZTgEb_2RTZvT8DhTI-260" value="" style="endArrow=classic;html=1;rounded=0;exitX=0.792;exitY=0.904;exitDx=0;exitDy=0;exitPerimeter=0;entryX=0;entryY=0.5;entryDx=0;entryDy=0;" edge="1" parent="1" source="9QSZTgEb_2RTZvT8DhTI-248" target="9QSZTgEb_2RTZvT8DhTI-257">
          <mxGeometry width="50" height="50" relative="1" as="geometry">
            <mxPoint x="153" y="503" as="sourcePoint" />
            <mxPoint x="203" y="453" as="targetPoint" />
          </mxGeometry>
        </mxCell>
        <mxCell id="9QSZTgEb_2RTZvT8DhTI-261" value="" style="edgeStyle=orthogonalEdgeStyle;rounded=0;orthogonalLoop=1;jettySize=auto;html=1;" edge="1" parent="1" source="9QSZTgEb_2RTZvT8DhTI-262" target="9QSZTgEb_2RTZvT8DhTI-264">
          <mxGeometry relative="1" as="geometry" />
        </mxCell>
        <mxCell id="9QSZTgEb_2RTZvT8DhTI-262" value="6" style="ellipse;whiteSpace=wrap;html=1;aspect=fixed;" vertex="1" parent="1">
          <mxGeometry x="385" y="377" width="47" height="47" as="geometry" />
        </mxCell>
        <mxCell id="9QSZTgEb_2RTZvT8DhTI-263" value="" style="edgeStyle=orthogonalEdgeStyle;rounded=0;orthogonalLoop=1;jettySize=auto;html=1;" edge="1" parent="1" source="9QSZTgEb_2RTZvT8DhTI-264" target="9QSZTgEb_2RTZvT8DhTI-277">
          <mxGeometry relative="1" as="geometry" />
        </mxCell>
        <mxCell id="9QSZTgEb_2RTZvT8DhTI-264" value="7" style="ellipse;whiteSpace=wrap;html=1;aspect=fixed;" vertex="1" parent="1">
          <mxGeometry x="476" y="377" width="47" height="47" as="geometry" />
        </mxCell>
        <mxCell id="9QSZTgEb_2RTZvT8DhTI-265" value="" style="endArrow=classic;html=1;rounded=0;entryX=0;entryY=1;entryDx=0;entryDy=0;exitX=1;exitY=0;exitDx=0;exitDy=0;" edge="1" parent="1" source="9QSZTgEb_2RTZvT8DhTI-259" target="9QSZTgEb_2RTZvT8DhTI-262">
          <mxGeometry width="50" height="50" relative="1" as="geometry">
            <mxPoint x="330" y="492" as="sourcePoint" />
            <mxPoint x="357" y="470" as="targetPoint" />
          </mxGeometry>
        </mxCell>
        <mxCell id="9QSZTgEb_2RTZvT8DhTI-266" value="8" style="ellipse;whiteSpace=wrap;html=1;aspect=fixed;" vertex="1" parent="1">
          <mxGeometry x="385" y="488" width="47" height="47" as="geometry" />
        </mxCell>
        <mxCell id="9QSZTgEb_2RTZvT8DhTI-267" value="" style="edgeStyle=orthogonalEdgeStyle;rounded=0;orthogonalLoop=1;jettySize=auto;html=1;" edge="1" parent="1" source="9QSZTgEb_2RTZvT8DhTI-268" target="9QSZTgEb_2RTZvT8DhTI-275">
          <mxGeometry relative="1" as="geometry" />
        </mxCell>
        <mxCell id="9QSZTgEb_2RTZvT8DhTI-268" value="10" style="ellipse;whiteSpace=wrap;html=1;aspect=fixed;" vertex="1" parent="1">
          <mxGeometry x="381" y="571" width="47" height="47" as="geometry" />
        </mxCell>
        <mxCell id="9QSZTgEb_2RTZvT8DhTI-269" value="" style="endArrow=classic;html=1;rounded=0;exitX=0.76;exitY=0.927;exitDx=0;exitDy=0;exitPerimeter=0;entryX=0;entryY=0.5;entryDx=0;entryDy=0;" edge="1" parent="1" source="9QSZTgEb_2RTZvT8DhTI-259" target="9QSZTgEb_2RTZvT8DhTI-268">
          <mxGeometry width="50" height="50" relative="1" as="geometry">
            <mxPoint x="356" y="595" as="sourcePoint" />
            <mxPoint x="406" y="545" as="targetPoint" />
          </mxGeometry>
        </mxCell>
        <mxCell id="9QSZTgEb_2RTZvT8DhTI-270" value="" style="endArrow=classic;html=1;rounded=0;exitX=0.5;exitY=1;exitDx=0;exitDy=0;" edge="1" parent="1" source="9QSZTgEb_2RTZvT8DhTI-255" target="9QSZTgEb_2RTZvT8DhTI-268">
          <mxGeometry width="50" height="50" relative="1" as="geometry">
            <mxPoint x="583" y="505" as="sourcePoint" />
            <mxPoint x="633" y="455" as="targetPoint" />
          </mxGeometry>
        </mxCell>
        <mxCell id="9QSZTgEb_2RTZvT8DhTI-271" value="" style="edgeStyle=orthogonalEdgeStyle;rounded=0;orthogonalLoop=1;jettySize=auto;html=1;" edge="1" parent="1" target="9QSZTgEb_2RTZvT8DhTI-273">
          <mxGeometry relative="1" as="geometry">
            <mxPoint x="432" y="512" as="sourcePoint" />
          </mxGeometry>
        </mxCell>
        <mxCell id="9QSZTgEb_2RTZvT8DhTI-272" value="" style="edgeStyle=orthogonalEdgeStyle;rounded=0;orthogonalLoop=1;jettySize=auto;html=1;" edge="1" parent="1" source="9QSZTgEb_2RTZvT8DhTI-273" target="9QSZTgEb_2RTZvT8DhTI-282">
          <mxGeometry relative="1" as="geometry" />
        </mxCell>
        <mxCell id="9QSZTgEb_2RTZvT8DhTI-273" value="9" style="ellipse;whiteSpace=wrap;html=1;aspect=fixed;" vertex="1" parent="1">
          <mxGeometry x="476" y="489" width="47" height="47" as="geometry" />
        </mxCell>
        <mxCell id="9QSZTgEb_2RTZvT8DhTI-274" value="" style="edgeStyle=orthogonalEdgeStyle;rounded=0;orthogonalLoop=1;jettySize=auto;html=1;" edge="1" parent="1" source="9QSZTgEb_2RTZvT8DhTI-275" target="9QSZTgEb_2RTZvT8DhTI-286">
          <mxGeometry relative="1" as="geometry" />
        </mxCell>
        <mxCell id="9QSZTgEb_2RTZvT8DhTI-275" value="11" style="ellipse;whiteSpace=wrap;html=1;aspect=fixed;" vertex="1" parent="1">
          <mxGeometry x="476" y="571" width="47" height="47" as="geometry" />
        </mxCell>
        <mxCell id="9QSZTgEb_2RTZvT8DhTI-276" value="" style="edgeStyle=orthogonalEdgeStyle;rounded=0;orthogonalLoop=1;jettySize=auto;html=1;" edge="1" parent="1" source="9QSZTgEb_2RTZvT8DhTI-277" target="9QSZTgEb_2RTZvT8DhTI-280">
          <mxGeometry relative="1" as="geometry" />
        </mxCell>
        <mxCell id="9QSZTgEb_2RTZvT8DhTI-277" value="12" style="ellipse;whiteSpace=wrap;html=1;aspect=fixed;" vertex="1" parent="1">
          <mxGeometry x="573" y="377" width="47" height="47" as="geometry" />
        </mxCell>
        <mxCell id="9QSZTgEb_2RTZvT8DhTI-278" value="" style="endArrow=classic;html=1;rounded=0;exitX=0.901;exitY=0.215;exitDx=0;exitDy=0;exitPerimeter=0;" edge="1" parent="1" source="9QSZTgEb_2RTZvT8DhTI-275" target="9QSZTgEb_2RTZvT8DhTI-277">
          <mxGeometry width="50" height="50" relative="1" as="geometry">
            <mxPoint x="515" y="581" as="sourcePoint" />
            <mxPoint x="565" y="531" as="targetPoint" />
          </mxGeometry>
        </mxCell>
        <mxCell id="9QSZTgEb_2RTZvT8DhTI-279" value="" style="edgeStyle=orthogonalEdgeStyle;rounded=0;orthogonalLoop=1;jettySize=auto;html=1;" edge="1" parent="1" source="9QSZTgEb_2RTZvT8DhTI-280" target="9QSZTgEb_2RTZvT8DhTI-292">
          <mxGeometry relative="1" as="geometry" />
        </mxCell>
        <mxCell id="9QSZTgEb_2RTZvT8DhTI-280" value="13" style="ellipse;whiteSpace=wrap;html=1;aspect=fixed;" vertex="1" parent="1">
          <mxGeometry x="666" y="377" width="47" height="47" as="geometry" />
        </mxCell>
        <mxCell id="9QSZTgEb_2RTZvT8DhTI-281" value="" style="edgeStyle=orthogonalEdgeStyle;rounded=0;orthogonalLoop=1;jettySize=auto;html=1;" edge="1" parent="1" source="9QSZTgEb_2RTZvT8DhTI-282" target="9QSZTgEb_2RTZvT8DhTI-284">
          <mxGeometry relative="1" as="geometry" />
        </mxCell>
        <mxCell id="9QSZTgEb_2RTZvT8DhTI-282" value="14" style="ellipse;whiteSpace=wrap;html=1;aspect=fixed;" vertex="1" parent="1">
          <mxGeometry x="573" y="489" width="47" height="47" as="geometry" />
        </mxCell>
        <mxCell id="9QSZTgEb_2RTZvT8DhTI-283" value="" style="edgeStyle=orthogonalEdgeStyle;rounded=0;orthogonalLoop=1;jettySize=auto;html=1;" edge="1" parent="1" source="9QSZTgEb_2RTZvT8DhTI-284" target="9QSZTgEb_2RTZvT8DhTI-294">
          <mxGeometry relative="1" as="geometry" />
        </mxCell>
        <mxCell id="9QSZTgEb_2RTZvT8DhTI-284" value="15" style="ellipse;whiteSpace=wrap;html=1;aspect=fixed;" vertex="1" parent="1">
          <mxGeometry x="666" y="489" width="47" height="47" as="geometry" />
        </mxCell>
        <mxCell id="9QSZTgEb_2RTZvT8DhTI-285" value="" style="edgeStyle=orthogonalEdgeStyle;rounded=0;orthogonalLoop=1;jettySize=auto;html=1;" edge="1" parent="1" source="9QSZTgEb_2RTZvT8DhTI-286" target="9QSZTgEb_2RTZvT8DhTI-287">
          <mxGeometry relative="1" as="geometry" />
        </mxCell>
        <mxCell id="9QSZTgEb_2RTZvT8DhTI-286" value="16" style="ellipse;whiteSpace=wrap;html=1;aspect=fixed;" vertex="1" parent="1">
          <mxGeometry x="573" y="571" width="47" height="47" as="geometry" />
        </mxCell>
        <mxCell id="9QSZTgEb_2RTZvT8DhTI-287" value="17" style="ellipse;whiteSpace=wrap;html=1;aspect=fixed;" vertex="1" parent="1">
          <mxGeometry x="666" y="571" width="47" height="47" as="geometry" />
        </mxCell>
        <mxCell id="9QSZTgEb_2RTZvT8DhTI-288" value="" style="endArrow=classic;html=1;rounded=0;exitX=0.737;exitY=0.934;exitDx=0;exitDy=0;exitPerimeter=0;entryX=0;entryY=0;entryDx=0;entryDy=0;" edge="1" parent="1" source="9QSZTgEb_2RTZvT8DhTI-264" target="9QSZTgEb_2RTZvT8DhTI-286">
          <mxGeometry width="50" height="50" relative="1" as="geometry">
            <mxPoint x="616" y="489" as="sourcePoint" />
            <mxPoint x="666" y="439" as="targetPoint" />
          </mxGeometry>
        </mxCell>
        <mxCell id="9QSZTgEb_2RTZvT8DhTI-289" value="" style="endArrow=classic;html=1;rounded=0;exitX=0.951;exitY=0.351;exitDx=0;exitDy=0;exitPerimeter=0;entryX=0;entryY=1;entryDx=0;entryDy=0;" edge="1" parent="1" source="9QSZTgEb_2RTZvT8DhTI-275" target="9QSZTgEb_2RTZvT8DhTI-282">
          <mxGeometry width="50" height="50" relative="1" as="geometry">
            <mxPoint x="612" y="567" as="sourcePoint" />
            <mxPoint x="662" y="517" as="targetPoint" />
          </mxGeometry>
        </mxCell>
        <mxCell id="9QSZTgEb_2RTZvT8DhTI-290" value="" style="endArrow=classic;html=1;rounded=0;exitX=1;exitY=1;exitDx=0;exitDy=0;entryX=0.111;entryY=0.183;entryDx=0;entryDy=0;entryPerimeter=0;" edge="1" parent="1" source="9QSZTgEb_2RTZvT8DhTI-255" target="9QSZTgEb_2RTZvT8DhTI-266">
          <mxGeometry width="50" height="50" relative="1" as="geometry">
            <mxPoint x="404" y="469" as="sourcePoint" />
            <mxPoint x="454" y="419" as="targetPoint" />
          </mxGeometry>
        </mxCell>
        <mxCell id="9QSZTgEb_2RTZvT8DhTI-291" value="" style="edgeStyle=orthogonalEdgeStyle;rounded=0;orthogonalLoop=1;jettySize=auto;html=1;" edge="1" parent="1" source="9QSZTgEb_2RTZvT8DhTI-292" target="9QSZTgEb_2RTZvT8DhTI-295">
          <mxGeometry relative="1" as="geometry" />
        </mxCell>
        <mxCell id="9QSZTgEb_2RTZvT8DhTI-292" value="18" style="ellipse;whiteSpace=wrap;html=1;aspect=fixed;" vertex="1" parent="1">
          <mxGeometry x="786" y="377" width="47" height="47" as="geometry" />
        </mxCell>
        <mxCell id="9QSZTgEb_2RTZvT8DhTI-293" value="" style="edgeStyle=orthogonalEdgeStyle;rounded=0;orthogonalLoop=1;jettySize=auto;html=1;" edge="1" parent="1" source="9QSZTgEb_2RTZvT8DhTI-294" target="9QSZTgEb_2RTZvT8DhTI-296">
          <mxGeometry relative="1" as="geometry" />
        </mxCell>
        <mxCell id="9QSZTgEb_2RTZvT8DhTI-294" value="20" style="ellipse;whiteSpace=wrap;html=1;aspect=fixed;" vertex="1" parent="1">
          <mxGeometry x="786" y="489" width="47" height="47" as="geometry" />
        </mxCell>
        <mxCell id="9QSZTgEb_2RTZvT8DhTI-295" value="19" style="ellipse;whiteSpace=wrap;html=1;aspect=fixed;" vertex="1" parent="1">
          <mxGeometry x="894" y="377" width="47" height="47" as="geometry" />
        </mxCell>
        <mxCell id="9QSZTgEb_2RTZvT8DhTI-296" value="21" style="ellipse;whiteSpace=wrap;html=1;aspect=fixed;" vertex="1" parent="1">
          <mxGeometry x="894" y="489" width="47" height="47" as="geometry" />
        </mxCell>
        <mxCell id="9QSZTgEb_2RTZvT8DhTI-297" value="" style="edgeStyle=orthogonalEdgeStyle;rounded=0;orthogonalLoop=1;jettySize=auto;html=1;" edge="1" parent="1" source="9QSZTgEb_2RTZvT8DhTI-298" target="9QSZTgEb_2RTZvT8DhTI-299">
          <mxGeometry relative="1" as="geometry" />
        </mxCell>
        <mxCell id="9QSZTgEb_2RTZvT8DhTI-298" value="22" style="ellipse;whiteSpace=wrap;html=1;aspect=fixed;" vertex="1" parent="1">
          <mxGeometry x="1022" y="444" width="47" height="47" as="geometry" />
        </mxCell>
        <mxCell id="9QSZTgEb_2RTZvT8DhTI-299" value="23" style="ellipse;whiteSpace=wrap;html=1;aspect=fixed;" vertex="1" parent="1">
          <mxGeometry x="1125" y="444" width="47" height="47" as="geometry" />
        </mxCell>
        <mxCell id="9QSZTgEb_2RTZvT8DhTI-300" value="" style="endArrow=classic;html=1;rounded=0;exitX=1;exitY=0.5;exitDx=0;exitDy=0;entryX=0.033;entryY=0.703;entryDx=0;entryDy=0;entryPerimeter=0;" edge="1" parent="1" source="9QSZTgEb_2RTZvT8DhTI-296" target="9QSZTgEb_2RTZvT8DhTI-298">
          <mxGeometry width="50" height="50" relative="1" as="geometry">
            <mxPoint x="990" y="573" as="sourcePoint" />
            <mxPoint x="1040" y="523" as="targetPoint" />
          </mxGeometry>
        </mxCell>
        <mxCell id="9QSZTgEb_2RTZvT8DhTI-301" value="" style="endArrow=classic;html=1;rounded=0;exitX=1;exitY=1;exitDx=0;exitDy=0;entryX=0.061;entryY=0.253;entryDx=0;entryDy=0;entryPerimeter=0;" edge="1" parent="1" source="9QSZTgEb_2RTZvT8DhTI-295" target="9QSZTgEb_2RTZvT8DhTI-298">
          <mxGeometry width="50" height="50" relative="1" as="geometry">
            <mxPoint x="958" y="463" as="sourcePoint" />
            <mxPoint x="1008" y="413" as="targetPoint" />
          </mxGeometry>
        </mxCell>
        <mxCell id="9QSZTgEb_2RTZvT8DhTI-302" value="" style="endArrow=classic;html=1;rounded=0;exitX=1;exitY=0.5;exitDx=0;exitDy=0;entryX=0.341;entryY=0.948;entryDx=0;entryDy=0;entryPerimeter=0;" edge="1" parent="1" source="9QSZTgEb_2RTZvT8DhTI-287" target="9QSZTgEb_2RTZvT8DhTI-298">
          <mxGeometry width="50" height="50" relative="1" as="geometry">
            <mxPoint x="956" y="597" as="sourcePoint" />
            <mxPoint x="1006" y="547" as="targetPoint" />
            <Array as="points">
              <mxPoint x="978" y="598" />
            </Array>
          </mxGeometry>
        </mxCell>
        <mxCell id="9QSZTgEb_2RTZvT8DhTI-303" value="Z1" style="text;html=1;align=center;verticalAlign=middle;resizable=0;points=[];autosize=1;strokeColor=none;fillColor=none;" vertex="1" parent="1">
          <mxGeometry x="84" y="436" width="32" height="26" as="geometry" />
        </mxCell>
        <mxCell id="9QSZTgEb_2RTZvT8DhTI-304" value="1" style="text;html=1;align=center;verticalAlign=middle;resizable=0;points=[];autosize=1;strokeColor=none;fillColor=none;" vertex="1" parent="1">
          <mxGeometry x="86" y="451" width="25" height="26" as="geometry" />
        </mxCell>
        <mxCell id="9QSZTgEb_2RTZvT8DhTI-305" value="Z2" style="text;html=1;align=center;verticalAlign=middle;resizable=0;points=[];autosize=1;strokeColor=none;fillColor=none;" vertex="1" parent="1">
          <mxGeometry x="154" y="410" width="32" height="26" as="geometry" />
        </mxCell>
        <mxCell id="9QSZTgEb_2RTZvT8DhTI-306" value="2" style="text;html=1;align=center;verticalAlign=middle;resizable=0;points=[];autosize=1;strokeColor=none;fillColor=none;" vertex="1" parent="1">
          <mxGeometry x="165" y="424" width="25" height="26" as="geometry" />
        </mxCell>
        <mxCell id="9QSZTgEb_2RTZvT8DhTI-307" value="Z2" style="text;html=1;align=center;verticalAlign=middle;resizable=0;points=[];autosize=1;strokeColor=none;fillColor=none;" vertex="1" parent="1">
          <mxGeometry x="168" y="472" width="32" height="26" as="geometry" />
        </mxCell>
        <mxCell id="9QSZTgEb_2RTZvT8DhTI-308" value="2" style="text;html=1;align=center;verticalAlign=middle;resizable=0;points=[];autosize=1;strokeColor=none;fillColor=none;" vertex="1" parent="1">
          <mxGeometry x="161" y="487" width="25" height="26" as="geometry" />
        </mxCell>
        <mxCell id="9QSZTgEb_2RTZvT8DhTI-309" value="Z3" style="text;html=1;align=center;verticalAlign=middle;resizable=0;points=[];autosize=1;strokeColor=none;fillColor=none;" vertex="1" parent="1">
          <mxGeometry x="250" y="488" width="32" height="26" as="geometry" />
        </mxCell>
        <mxCell id="9QSZTgEb_2RTZvT8DhTI-310" value="3" style="text;html=1;align=center;verticalAlign=middle;resizable=0;points=[];autosize=1;strokeColor=none;fillColor=none;" vertex="1" parent="1">
          <mxGeometry x="253.5" y="506" width="25" height="26" as="geometry" />
        </mxCell>
        <mxCell id="9QSZTgEb_2RTZvT8DhTI-311" value="Z3" style="text;html=1;align=center;verticalAlign=middle;resizable=0;points=[];autosize=1;strokeColor=none;fillColor=none;" vertex="1" parent="1">
          <mxGeometry x="250" y="381" width="32" height="26" as="geometry" />
        </mxCell>
        <mxCell id="9QSZTgEb_2RTZvT8DhTI-312" value="3" style="text;html=1;align=center;verticalAlign=middle;resizable=0;points=[];autosize=1;strokeColor=none;fillColor=none;" vertex="1" parent="1">
          <mxGeometry x="253.5" y="396" width="25" height="26" as="geometry" />
        </mxCell>
        <mxCell id="9QSZTgEb_2RTZvT8DhTI-313" value="Z4" style="text;html=1;align=center;verticalAlign=middle;resizable=0;points=[];autosize=1;strokeColor=none;fillColor=none;" vertex="1" parent="1">
          <mxGeometry x="339" y="377" width="32" height="26" as="geometry" />
        </mxCell>
        <mxCell id="9QSZTgEb_2RTZvT8DhTI-314" value="5" style="text;html=1;align=center;verticalAlign=middle;resizable=0;points=[];autosize=1;strokeColor=none;fillColor=none;" vertex="1" parent="1">
          <mxGeometry x="342.5" y="396" width="25" height="26" as="geometry" />
        </mxCell>
        <mxCell id="9QSZTgEb_2RTZvT8DhTI-315" value="Z5" style="text;html=1;align=center;verticalAlign=middle;resizable=0;points=[];autosize=1;strokeColor=none;fillColor=none;" vertex="1" parent="1">
          <mxGeometry x="328" y="493" width="32" height="26" as="geometry" />
        </mxCell>
        <mxCell id="9QSZTgEb_2RTZvT8DhTI-316" value="5" style="text;html=1;align=center;verticalAlign=middle;resizable=0;points=[];autosize=1;strokeColor=none;fillColor=none;" vertex="1" parent="1">
          <mxGeometry x="331.5" y="506" width="25" height="26" as="geometry" />
        </mxCell>
        <mxCell id="9QSZTgEb_2RTZvT8DhTI-317" value="Z6" style="text;html=1;align=center;verticalAlign=middle;resizable=0;points=[];autosize=1;strokeColor=none;fillColor=none;" vertex="1" parent="1">
          <mxGeometry x="340" y="540" width="32" height="26" as="geometry" />
        </mxCell>
        <mxCell id="9QSZTgEb_2RTZvT8DhTI-318" value="5" style="text;html=1;align=center;verticalAlign=middle;resizable=0;points=[];autosize=1;strokeColor=none;fillColor=none;" vertex="1" parent="1">
          <mxGeometry x="331.5" y="552" width="25" height="26" as="geometry" />
        </mxCell>
        <mxCell id="9QSZTgEb_2RTZvT8DhTI-319" value="Z5" style="text;html=1;align=center;verticalAlign=middle;resizable=0;points=[];autosize=1;strokeColor=none;fillColor=none;" vertex="1" parent="1">
          <mxGeometry x="434" y="379" width="32" height="26" as="geometry" />
        </mxCell>
        <mxCell id="9QSZTgEb_2RTZvT8DhTI-320" value="5" style="text;html=1;align=center;verticalAlign=middle;resizable=0;points=[];autosize=1;strokeColor=none;fillColor=none;" vertex="1" parent="1">
          <mxGeometry x="437" y="399" width="25" height="26" as="geometry" />
        </mxCell>
        <mxCell id="9QSZTgEb_2RTZvT8DhTI-321" value="Z6" style="text;html=1;align=center;verticalAlign=middle;resizable=0;points=[];autosize=1;strokeColor=none;fillColor=none;" vertex="1" parent="1">
          <mxGeometry x="433.5" y="490" width="32" height="26" as="geometry" />
        </mxCell>
        <mxCell id="9QSZTgEb_2RTZvT8DhTI-322" value="5" style="text;html=1;align=center;verticalAlign=middle;resizable=0;points=[];autosize=1;strokeColor=none;fillColor=none;" vertex="1" parent="1">
          <mxGeometry x="436.5" y="510" width="25" height="26" as="geometry" />
        </mxCell>
        <mxCell id="9QSZTgEb_2RTZvT8DhTI-323" value="Z7" style="text;html=1;align=center;verticalAlign=middle;resizable=0;points=[];autosize=1;strokeColor=none;fillColor=none;" vertex="1" parent="1">
          <mxGeometry x="434" y="571" width="32" height="26" as="geometry" />
        </mxCell>
        <mxCell id="9QSZTgEb_2RTZvT8DhTI-324" value="7" style="text;html=1;align=center;verticalAlign=middle;resizable=0;points=[];autosize=1;strokeColor=none;fillColor=none;" vertex="1" parent="1">
          <mxGeometry x="437" y="591" width="25" height="26" as="geometry" />
        </mxCell>
        <mxCell id="9QSZTgEb_2RTZvT8DhTI-325" value="Z6" style="text;html=1;align=center;verticalAlign=middle;resizable=0;points=[];autosize=1;strokeColor=none;fillColor=none;" vertex="1" parent="1">
          <mxGeometry x="530" y="378" width="32" height="26" as="geometry" />
        </mxCell>
        <mxCell id="9QSZTgEb_2RTZvT8DhTI-326" value="5" style="text;html=1;align=center;verticalAlign=middle;resizable=0;points=[];autosize=1;strokeColor=none;fillColor=none;" vertex="1" parent="1">
          <mxGeometry x="533" y="398" width="25" height="26" as="geometry" />
        </mxCell>
        <mxCell id="9QSZTgEb_2RTZvT8DhTI-327" value="Z7" style="text;html=1;align=center;verticalAlign=middle;resizable=0;points=[];autosize=1;strokeColor=none;fillColor=none;" vertex="1" parent="1">
          <mxGeometry x="517" y="488.5" width="32" height="26" as="geometry" />
        </mxCell>
        <mxCell id="9QSZTgEb_2RTZvT8DhTI-328" value="7" style="text;html=1;align=center;verticalAlign=middle;resizable=0;points=[];autosize=1;strokeColor=none;fillColor=none;" vertex="1" parent="1">
          <mxGeometry x="520" y="508.5" width="25" height="26" as="geometry" />
        </mxCell>
        <mxCell id="9QSZTgEb_2RTZvT8DhTI-329" value="Z6" style="text;html=1;align=center;verticalAlign=middle;resizable=0;points=[];autosize=1;strokeColor=none;fillColor=none;" vertex="1" parent="1">
          <mxGeometry x="529.5" y="571" width="32" height="26" as="geometry" />
        </mxCell>
        <mxCell id="9QSZTgEb_2RTZvT8DhTI-330" value="5" style="text;html=1;align=center;verticalAlign=middle;resizable=0;points=[];autosize=1;strokeColor=none;fillColor=none;" vertex="1" parent="1">
          <mxGeometry x="532.5" y="591" width="25" height="26" as="geometry" />
        </mxCell>
        <mxCell id="9QSZTgEb_2RTZvT8DhTI-331" value="Z7" style="text;html=1;align=center;verticalAlign=middle;resizable=0;points=[];autosize=1;strokeColor=none;fillColor=none;" vertex="1" parent="1">
          <mxGeometry x="622" y="379" width="32" height="26" as="geometry" />
        </mxCell>
        <mxCell id="9QSZTgEb_2RTZvT8DhTI-332" value="7" style="text;html=1;align=center;verticalAlign=middle;resizable=0;points=[];autosize=1;strokeColor=none;fillColor=none;" vertex="1" parent="1">
          <mxGeometry x="625.5" y="396" width="25" height="26" as="geometry" />
        </mxCell>
        <mxCell id="9QSZTgEb_2RTZvT8DhTI-333" value="Z7" style="text;html=1;align=center;verticalAlign=middle;resizable=0;points=[];autosize=1;strokeColor=none;fillColor=none;" vertex="1" parent="1">
          <mxGeometry x="620" y="489" width="32" height="26" as="geometry" />
        </mxCell>
        <mxCell id="9QSZTgEb_2RTZvT8DhTI-334" value="7" style="text;html=1;align=center;verticalAlign=middle;resizable=0;points=[];autosize=1;strokeColor=none;fillColor=none;" vertex="1" parent="1">
          <mxGeometry x="623.5" y="506" width="25" height="26" as="geometry" />
        </mxCell>
        <mxCell id="9QSZTgEb_2RTZvT8DhTI-335" value="Z7" style="text;html=1;align=center;verticalAlign=middle;resizable=0;points=[];autosize=1;strokeColor=none;fillColor=none;" vertex="1" parent="1">
          <mxGeometry x="618.5" y="573" width="32" height="26" as="geometry" />
        </mxCell>
        <mxCell id="9QSZTgEb_2RTZvT8DhTI-336" value="7" style="text;html=1;align=center;verticalAlign=middle;resizable=0;points=[];autosize=1;strokeColor=none;fillColor=none;" vertex="1" parent="1">
          <mxGeometry x="622" y="590" width="25" height="26" as="geometry" />
        </mxCell>
        <mxCell id="9QSZTgEb_2RTZvT8DhTI-337" value="Z8" style="text;html=1;align=center;verticalAlign=middle;resizable=0;points=[];autosize=1;strokeColor=none;fillColor=none;" vertex="1" parent="1">
          <mxGeometry x="729" y="379" width="32" height="26" as="geometry" />
        </mxCell>
        <mxCell id="9QSZTgEb_2RTZvT8DhTI-338" value="7" style="text;html=1;align=center;verticalAlign=middle;resizable=0;points=[];autosize=1;strokeColor=none;fillColor=none;" vertex="1" parent="1">
          <mxGeometry x="732.5" y="396" width="25" height="26" as="geometry" />
        </mxCell>
        <mxCell id="9QSZTgEb_2RTZvT8DhTI-339" value="Z8" style="text;html=1;align=center;verticalAlign=middle;resizable=0;points=[];autosize=1;strokeColor=none;fillColor=none;" vertex="1" parent="1">
          <mxGeometry x="729" y="491.5" width="32" height="26" as="geometry" />
        </mxCell>
        <mxCell id="9QSZTgEb_2RTZvT8DhTI-340" value="7" style="text;html=1;align=center;verticalAlign=middle;resizable=0;points=[];autosize=1;strokeColor=none;fillColor=none;" vertex="1" parent="1">
          <mxGeometry x="732.5" y="508.5" width="25" height="26" as="geometry" />
        </mxCell>
        <mxCell id="9QSZTgEb_2RTZvT8DhTI-341" value="Z8" style="text;html=1;align=center;verticalAlign=middle;resizable=0;points=[];autosize=1;strokeColor=none;fillColor=none;" vertex="1" parent="1">
          <mxGeometry x="766" y="573" width="32" height="26" as="geometry" />
        </mxCell>
        <mxCell id="9QSZTgEb_2RTZvT8DhTI-342" value="7" style="text;html=1;align=center;verticalAlign=middle;resizable=0;points=[];autosize=1;strokeColor=none;fillColor=none;" vertex="1" parent="1">
          <mxGeometry x="769.5" y="590" width="25" height="26" as="geometry" />
        </mxCell>
        <mxCell id="9QSZTgEb_2RTZvT8DhTI-343" value="Z4" style="text;html=1;align=center;verticalAlign=middle;resizable=0;points=[];autosize=1;strokeColor=none;fillColor=none;" vertex="1" parent="1">
          <mxGeometry x="335.5" y="422" width="32" height="26" as="geometry" />
        </mxCell>
        <mxCell id="9QSZTgEb_2RTZvT8DhTI-344" value="5" style="text;html=1;align=center;verticalAlign=middle;resizable=0;points=[];autosize=1;strokeColor=none;fillColor=none;" vertex="1" parent="1">
          <mxGeometry x="317.5" y="433" width="25" height="26" as="geometry" />
        </mxCell>
        <mxCell id="9QSZTgEb_2RTZvT8DhTI-351" value="" style="edgeStyle=orthogonalEdgeStyle;rounded=0;orthogonalLoop=1;jettySize=auto;html=1;" edge="1" parent="1" source="9QSZTgEb_2RTZvT8DhTI-345" target="9QSZTgEb_2RTZvT8DhTI-350">
          <mxGeometry relative="1" as="geometry" />
        </mxCell>
        <mxCell id="9QSZTgEb_2RTZvT8DhTI-345" value="1" style="ellipse;whiteSpace=wrap;html=1;aspect=fixed;" vertex="1" parent="1">
          <mxGeometry x="180" y="924" width="47" height="47" as="geometry" />
        </mxCell>
        <mxCell id="9QSZTgEb_2RTZvT8DhTI-346" value="" style="edgeStyle=orthogonalEdgeStyle;rounded=0;orthogonalLoop=1;jettySize=auto;html=1;" edge="1" parent="1" source="9QSZTgEb_2RTZvT8DhTI-347" target="9QSZTgEb_2RTZvT8DhTI-345">
          <mxGeometry relative="1" as="geometry" />
        </mxCell>
        <mxCell id="9QSZTgEb_2RTZvT8DhTI-347" value="0" style="ellipse;whiteSpace=wrap;html=1;aspect=fixed;" vertex="1" parent="1">
          <mxGeometry x="95" y="924" width="47" height="47" as="geometry" />
        </mxCell>
        <mxCell id="9QSZTgEb_2RTZvT8DhTI-348" value="Z1" style="text;html=1;align=center;verticalAlign=middle;resizable=0;points=[];autosize=1;strokeColor=none;fillColor=none;" vertex="1" parent="1">
          <mxGeometry x="143" y="927" width="32" height="26" as="geometry" />
        </mxCell>
        <mxCell id="9QSZTgEb_2RTZvT8DhTI-349" value="1" style="text;html=1;align=center;verticalAlign=middle;resizable=0;points=[];autosize=1;strokeColor=none;fillColor=none;" vertex="1" parent="1">
          <mxGeometry x="145" y="942" width="25" height="26" as="geometry" />
        </mxCell>
        <mxCell id="9QSZTgEb_2RTZvT8DhTI-355" value="" style="edgeStyle=orthogonalEdgeStyle;rounded=0;orthogonalLoop=1;jettySize=auto;html=1;" edge="1" parent="1" source="9QSZTgEb_2RTZvT8DhTI-350" target="9QSZTgEb_2RTZvT8DhTI-354">
          <mxGeometry relative="1" as="geometry" />
        </mxCell>
        <mxCell id="9QSZTgEb_2RTZvT8DhTI-350" value="2" style="ellipse;whiteSpace=wrap;html=1;aspect=fixed;" vertex="1" parent="1">
          <mxGeometry x="272" y="924" width="47" height="47" as="geometry" />
        </mxCell>
        <mxCell id="9QSZTgEb_2RTZvT8DhTI-352" value="Z2" style="text;html=1;align=center;verticalAlign=middle;resizable=0;points=[];autosize=1;strokeColor=none;fillColor=none;" vertex="1" parent="1">
          <mxGeometry x="235" y="927" width="32" height="26" as="geometry" />
        </mxCell>
        <mxCell id="9QSZTgEb_2RTZvT8DhTI-353" value="2" style="text;html=1;align=center;verticalAlign=middle;resizable=0;points=[];autosize=1;strokeColor=none;fillColor=none;" vertex="1" parent="1">
          <mxGeometry x="237" y="945" width="25" height="26" as="geometry" />
        </mxCell>
        <mxCell id="9QSZTgEb_2RTZvT8DhTI-359" value="" style="edgeStyle=orthogonalEdgeStyle;rounded=0;orthogonalLoop=1;jettySize=auto;html=1;dashed=1;dashPattern=12 12;" edge="1" parent="1" source="9QSZTgEb_2RTZvT8DhTI-354" target="9QSZTgEb_2RTZvT8DhTI-358">
          <mxGeometry relative="1" as="geometry" />
        </mxCell>
        <mxCell id="9QSZTgEb_2RTZvT8DhTI-354" value="3" style="ellipse;whiteSpace=wrap;html=1;aspect=fixed;" vertex="1" parent="1">
          <mxGeometry x="354.5" y="924" width="47" height="47" as="geometry" />
        </mxCell>
        <mxCell id="9QSZTgEb_2RTZvT8DhTI-356" value="Z3" style="text;html=1;align=center;verticalAlign=middle;resizable=0;points=[];autosize=1;strokeColor=none;fillColor=none;" vertex="1" parent="1">
          <mxGeometry x="319" y="927" width="32" height="26" as="geometry" />
        </mxCell>
        <mxCell id="9QSZTgEb_2RTZvT8DhTI-357" value="3" style="text;html=1;align=center;verticalAlign=middle;resizable=0;points=[];autosize=1;strokeColor=none;fillColor=none;" vertex="1" parent="1">
          <mxGeometry x="322.5" y="942" width="25" height="26" as="geometry" />
        </mxCell>
        <mxCell id="9QSZTgEb_2RTZvT8DhTI-368" value="" style="edgeStyle=orthogonalEdgeStyle;rounded=0;orthogonalLoop=1;jettySize=auto;html=1;" edge="1" parent="1" source="9QSZTgEb_2RTZvT8DhTI-358" target="9QSZTgEb_2RTZvT8DhTI-367">
          <mxGeometry relative="1" as="geometry" />
        </mxCell>
        <mxCell id="9QSZTgEb_2RTZvT8DhTI-358" value="4" style="ellipse;whiteSpace=wrap;html=1;aspect=fixed;" vertex="1" parent="1">
          <mxGeometry x="456" y="924" width="47" height="47" as="geometry" />
        </mxCell>
        <mxCell id="9QSZTgEb_2RTZvT8DhTI-362" value="5" style="ellipse;whiteSpace=wrap;html=1;aspect=fixed;" vertex="1" parent="1">
          <mxGeometry x="456" y="1003" width="47" height="47" as="geometry" />
        </mxCell>
        <mxCell id="9QSZTgEb_2RTZvT8DhTI-363" value="6" style="ellipse;whiteSpace=wrap;html=1;aspect=fixed;" vertex="1" parent="1">
          <mxGeometry x="455.5" y="1087" width="47" height="47" as="geometry" />
        </mxCell>
        <mxCell id="9QSZTgEb_2RTZvT8DhTI-364" value="" style="endArrow=classic;html=1;rounded=0;exitX=0.758;exitY=0.926;exitDx=0;exitDy=0;exitPerimeter=0;entryX=0.013;entryY=0.432;entryDx=0;entryDy=0;entryPerimeter=0;dashed=1;dashPattern=12 12;" edge="1" parent="1" source="9QSZTgEb_2RTZvT8DhTI-354" target="9QSZTgEb_2RTZvT8DhTI-362">
          <mxGeometry width="50" height="50" relative="1" as="geometry">
            <mxPoint x="410" y="1062" as="sourcePoint" />
            <mxPoint x="460" y="1012" as="targetPoint" />
          </mxGeometry>
        </mxCell>
        <mxCell id="9QSZTgEb_2RTZvT8DhTI-366" value="" style="endArrow=classic;html=1;rounded=0;exitX=0.5;exitY=1;exitDx=0;exitDy=0;entryX=0;entryY=0.5;entryDx=0;entryDy=0;dashed=1;dashPattern=12 12;" edge="1" parent="1" source="9QSZTgEb_2RTZvT8DhTI-354" target="9QSZTgEb_2RTZvT8DhTI-363">
          <mxGeometry width="50" height="50" relative="1" as="geometry">
            <mxPoint x="359" y="1099" as="sourcePoint" />
            <mxPoint x="409" y="1049" as="targetPoint" />
            <Array as="points">
              <mxPoint x="381" y="1111" />
            </Array>
          </mxGeometry>
        </mxCell>
        <mxCell id="9QSZTgEb_2RTZvT8DhTI-367" value="7" style="ellipse;whiteSpace=wrap;html=1;aspect=fixed;" vertex="1" parent="1">
          <mxGeometry x="560" y="924" width="47" height="47" as="geometry" />
        </mxCell>
        <mxCell id="9QSZTgEb_2RTZvT8DhTI-369" value="Z4" style="text;html=1;align=center;verticalAlign=middle;resizable=0;points=[];autosize=1;strokeColor=none;fillColor=none;" vertex="1" parent="1">
          <mxGeometry x="515" y="927" width="32" height="26" as="geometry" />
        </mxCell>
        <mxCell id="9QSZTgEb_2RTZvT8DhTI-370" value="5" style="text;html=1;align=center;verticalAlign=middle;resizable=0;points=[];autosize=1;strokeColor=none;fillColor=none;" vertex="1" parent="1">
          <mxGeometry x="518" y="946" width="25" height="26" as="geometry" />
        </mxCell>
        <mxCell id="9QSZTgEb_2RTZvT8DhTI-371" value="" style="edgeStyle=orthogonalEdgeStyle;rounded=0;orthogonalLoop=1;jettySize=auto;html=1;" edge="1" parent="1" target="9QSZTgEb_2RTZvT8DhTI-372">
          <mxGeometry relative="1" as="geometry">
            <mxPoint x="502.5" y="1029" as="sourcePoint" />
          </mxGeometry>
        </mxCell>
        <mxCell id="9QSZTgEb_2RTZvT8DhTI-372" value="8" style="ellipse;whiteSpace=wrap;html=1;aspect=fixed;" vertex="1" parent="1">
          <mxGeometry x="559.5" y="1006" width="47" height="47" as="geometry" />
        </mxCell>
        <mxCell id="9QSZTgEb_2RTZvT8DhTI-373" value="Z5" style="text;html=1;align=center;verticalAlign=middle;resizable=0;points=[];autosize=1;strokeColor=none;fillColor=none;" vertex="1" parent="1">
          <mxGeometry x="514.5" y="1008" width="32" height="26" as="geometry" />
        </mxCell>
        <mxCell id="9QSZTgEb_2RTZvT8DhTI-374" value="5" style="text;html=1;align=center;verticalAlign=middle;resizable=0;points=[];autosize=1;strokeColor=none;fillColor=none;" vertex="1" parent="1">
          <mxGeometry x="517.5" y="1027" width="25" height="26" as="geometry" />
        </mxCell>
        <mxCell id="9QSZTgEb_2RTZvT8DhTI-375" value="" style="edgeStyle=orthogonalEdgeStyle;rounded=0;orthogonalLoop=1;jettySize=auto;html=1;entryX=0.005;entryY=0.522;entryDx=0;entryDy=0;entryPerimeter=0;" edge="1" parent="1" target="9QSZTgEb_2RTZvT8DhTI-376">
          <mxGeometry relative="1" as="geometry">
            <mxPoint x="503" y="1111" as="sourcePoint" />
          </mxGeometry>
        </mxCell>
        <mxCell id="9QSZTgEb_2RTZvT8DhTI-392" value="" style="edgeStyle=orthogonalEdgeStyle;rounded=0;orthogonalLoop=1;jettySize=auto;html=1;dashed=1;dashPattern=12 12;" edge="1" parent="1" source="9QSZTgEb_2RTZvT8DhTI-376" target="9QSZTgEb_2RTZvT8DhTI-372">
          <mxGeometry relative="1" as="geometry" />
        </mxCell>
        <mxCell id="9QSZTgEb_2RTZvT8DhTI-376" value="9" style="ellipse;whiteSpace=wrap;html=1;aspect=fixed;" vertex="1" parent="1">
          <mxGeometry x="560" y="1087" width="47" height="47" as="geometry" />
        </mxCell>
        <mxCell id="9QSZTgEb_2RTZvT8DhTI-377" value="Z6" style="text;html=1;align=center;verticalAlign=middle;resizable=0;points=[];autosize=1;strokeColor=none;fillColor=none;" vertex="1" parent="1">
          <mxGeometry x="515" y="1090" width="32" height="26" as="geometry" />
        </mxCell>
        <mxCell id="9QSZTgEb_2RTZvT8DhTI-378" value="5" style="text;html=1;align=center;verticalAlign=middle;resizable=0;points=[];autosize=1;strokeColor=none;fillColor=none;" vertex="1" parent="1">
          <mxGeometry x="518" y="1109" width="25" height="26" as="geometry" />
        </mxCell>
        <mxCell id="9QSZTgEb_2RTZvT8DhTI-380" value="" style="edgeStyle=orthogonalEdgeStyle;rounded=0;orthogonalLoop=1;jettySize=auto;html=1;" edge="1" parent="1" target="9QSZTgEb_2RTZvT8DhTI-381">
          <mxGeometry relative="1" as="geometry">
            <mxPoint x="606.5" y="947" as="sourcePoint" />
          </mxGeometry>
        </mxCell>
        <mxCell id="9QSZTgEb_2RTZvT8DhTI-381" value="11" style="ellipse;whiteSpace=wrap;html=1;aspect=fixed;" vertex="1" parent="1">
          <mxGeometry x="662.5" y="924" width="47" height="47" as="geometry" />
        </mxCell>
        <mxCell id="9QSZTgEb_2RTZvT8DhTI-382" value="Z7" style="text;html=1;align=center;verticalAlign=middle;resizable=0;points=[];autosize=1;strokeColor=none;fillColor=none;" vertex="1" parent="1">
          <mxGeometry x="618.5" y="926" width="32" height="26" as="geometry" />
        </mxCell>
        <mxCell id="9QSZTgEb_2RTZvT8DhTI-383" value="7" style="text;html=1;align=center;verticalAlign=middle;resizable=0;points=[];autosize=1;strokeColor=none;fillColor=none;" vertex="1" parent="1">
          <mxGeometry x="621.5" y="945" width="25" height="26" as="geometry" />
        </mxCell>
        <mxCell id="9QSZTgEb_2RTZvT8DhTI-385" value="" style="endArrow=classic;html=1;rounded=0;entryX=0.5;entryY=1;entryDx=0;entryDy=0;exitX=1.002;exitY=0.511;exitDx=0;exitDy=0;dashed=1;dashPattern=8 8;exitPerimeter=0;" edge="1" parent="1" source="9QSZTgEb_2RTZvT8DhTI-376" target="9QSZTgEb_2RTZvT8DhTI-367">
          <mxGeometry width="50" height="50" relative="1" as="geometry">
            <mxPoint x="599" y="1093" as="sourcePoint" />
            <mxPoint x="649" y="1043" as="targetPoint" />
            <Array as="points">
              <mxPoint x="617" y="1111" />
              <mxPoint x="617" y="994" />
              <mxPoint x="584" y="994" />
            </Array>
          </mxGeometry>
        </mxCell>
        <mxCell id="9QSZTgEb_2RTZvT8DhTI-386" value="" style="edgeStyle=orthogonalEdgeStyle;rounded=0;orthogonalLoop=1;jettySize=auto;html=1;" edge="1" parent="1" target="9QSZTgEb_2RTZvT8DhTI-387">
          <mxGeometry relative="1" as="geometry">
            <mxPoint x="607" y="1030" as="sourcePoint" />
          </mxGeometry>
        </mxCell>
        <mxCell id="9QSZTgEb_2RTZvT8DhTI-387" value="12" style="ellipse;whiteSpace=wrap;html=1;aspect=fixed;" vertex="1" parent="1">
          <mxGeometry x="662.5" y="1007" width="47" height="47" as="geometry" />
        </mxCell>
        <mxCell id="9QSZTgEb_2RTZvT8DhTI-388" value="Z8" style="text;html=1;align=center;verticalAlign=middle;resizable=0;points=[];autosize=1;strokeColor=none;fillColor=none;" vertex="1" parent="1">
          <mxGeometry x="619" y="1009" width="32" height="26" as="geometry" />
        </mxCell>
        <mxCell id="9QSZTgEb_2RTZvT8DhTI-389" value="7" style="text;html=1;align=center;verticalAlign=middle;resizable=0;points=[];autosize=1;strokeColor=none;fillColor=none;" vertex="1" parent="1">
          <mxGeometry x="622" y="1028" width="25" height="26" as="geometry" />
        </mxCell>
        <mxCell id="9QSZTgEb_2RTZvT8DhTI-394" value="10" style="ellipse;whiteSpace=wrap;html=1;aspect=fixed;" vertex="1" parent="1">
          <mxGeometry x="662.5" y="849" width="47" height="47" as="geometry" />
        </mxCell>
        <mxCell id="9QSZTgEb_2RTZvT8DhTI-397" value="" style="endArrow=classic;html=1;rounded=0;entryX=0;entryY=0.5;entryDx=0;entryDy=0;exitX=0.5;exitY=0;exitDx=0;exitDy=0;" edge="1" parent="1" source="9QSZTgEb_2RTZvT8DhTI-367" target="9QSZTgEb_2RTZvT8DhTI-394">
          <mxGeometry width="50" height="50" relative="1" as="geometry">
            <mxPoint x="590" y="911" as="sourcePoint" />
            <mxPoint x="640" y="861" as="targetPoint" />
            <Array as="points">
              <mxPoint x="584" y="873" />
            </Array>
          </mxGeometry>
        </mxCell>
        <mxCell id="9QSZTgEb_2RTZvT8DhTI-398" value="Z9" style="text;html=1;align=center;verticalAlign=middle;resizable=0;points=[];autosize=1;strokeColor=none;fillColor=none;" vertex="1" parent="1">
          <mxGeometry x="614" y="849" width="32" height="26" as="geometry" />
        </mxCell>
        <mxCell id="9QSZTgEb_2RTZvT8DhTI-399" value="7" style="text;html=1;align=center;verticalAlign=middle;resizable=0;points=[];autosize=1;strokeColor=none;fillColor=none;" vertex="1" parent="1">
          <mxGeometry x="617.5" y="868" width="25" height="26" as="geometry" />
        </mxCell>
        <mxCell id="9QSZTgEb_2RTZvT8DhTI-403" value="" style="edgeStyle=orthogonalEdgeStyle;rounded=0;orthogonalLoop=1;jettySize=auto;html=1;" edge="1" parent="1" target="9QSZTgEb_2RTZvT8DhTI-404">
          <mxGeometry relative="1" as="geometry">
            <mxPoint x="709.5" y="947" as="sourcePoint" />
          </mxGeometry>
        </mxCell>
        <mxCell id="9QSZTgEb_2RTZvT8DhTI-412" value="" style="edgeStyle=orthogonalEdgeStyle;rounded=0;orthogonalLoop=1;jettySize=auto;html=1;" edge="1" parent="1" source="9QSZTgEb_2RTZvT8DhTI-404" target="9QSZTgEb_2RTZvT8DhTI-411">
          <mxGeometry relative="1" as="geometry" />
        </mxCell>
        <mxCell id="9QSZTgEb_2RTZvT8DhTI-404" value="13" style="ellipse;whiteSpace=wrap;html=1;aspect=fixed;" vertex="1" parent="1">
          <mxGeometry x="765.5" y="924" width="47" height="47" as="geometry" />
        </mxCell>
        <mxCell id="9QSZTgEb_2RTZvT8DhTI-405" value="Z10" style="text;html=1;align=center;verticalAlign=middle;resizable=0;points=[];autosize=1;strokeColor=none;fillColor=none;" vertex="1" parent="1">
          <mxGeometry x="718.5" y="926" width="39" height="26" as="geometry" />
        </mxCell>
        <mxCell id="9QSZTgEb_2RTZvT8DhTI-406" value="6" style="text;html=1;align=center;verticalAlign=middle;resizable=0;points=[];autosize=1;strokeColor=none;fillColor=none;" vertex="1" parent="1">
          <mxGeometry x="724.5" y="945" width="25" height="26" as="geometry" />
        </mxCell>
        <mxCell id="9QSZTgEb_2RTZvT8DhTI-407" value="" style="edgeStyle=orthogonalEdgeStyle;rounded=0;orthogonalLoop=1;jettySize=auto;html=1;" edge="1" parent="1" target="9QSZTgEb_2RTZvT8DhTI-408">
          <mxGeometry relative="1" as="geometry">
            <mxPoint x="709.5" y="1029" as="sourcePoint" />
          </mxGeometry>
        </mxCell>
        <mxCell id="9QSZTgEb_2RTZvT8DhTI-416" value="" style="edgeStyle=orthogonalEdgeStyle;rounded=0;orthogonalLoop=1;jettySize=auto;html=1;dashed=1;dashPattern=12 12;" edge="1" parent="1" source="9QSZTgEb_2RTZvT8DhTI-408" target="9QSZTgEb_2RTZvT8DhTI-404">
          <mxGeometry relative="1" as="geometry" />
        </mxCell>
        <mxCell id="9QSZTgEb_2RTZvT8DhTI-408" value="14" style="ellipse;whiteSpace=wrap;html=1;aspect=fixed;" vertex="1" parent="1">
          <mxGeometry x="765.5" y="1006" width="47" height="47" as="geometry" />
        </mxCell>
        <mxCell id="9QSZTgEb_2RTZvT8DhTI-409" value="Z11" style="text;html=1;align=center;verticalAlign=middle;resizable=0;points=[];autosize=1;strokeColor=none;fillColor=none;" vertex="1" parent="1">
          <mxGeometry x="718.5" y="1008" width="38" height="26" as="geometry" />
        </mxCell>
        <mxCell id="9QSZTgEb_2RTZvT8DhTI-410" value="6" style="text;html=1;align=center;verticalAlign=middle;resizable=0;points=[];autosize=1;strokeColor=none;fillColor=none;" vertex="1" parent="1">
          <mxGeometry x="724.5" y="1027" width="25" height="26" as="geometry" />
        </mxCell>
        <mxCell id="9QSZTgEb_2RTZvT8DhTI-411" value="15" style="ellipse;whiteSpace=wrap;html=1;aspect=fixed;" vertex="1" parent="1">
          <mxGeometry x="884" y="924" width="47" height="47" as="geometry" />
        </mxCell>
        <mxCell id="9QSZTgEb_2RTZvT8DhTI-413" value="Z12" style="text;html=1;align=center;verticalAlign=middle;resizable=0;points=[];autosize=1;strokeColor=none;fillColor=none;" vertex="1" parent="1">
          <mxGeometry x="827" y="927" width="39" height="26" as="geometry" />
        </mxCell>
        <mxCell id="9QSZTgEb_2RTZvT8DhTI-414" value="" style="endArrow=classic;html=1;rounded=0;exitX=1;exitY=0.5;exitDx=0;exitDy=0;entryX=0.5;entryY=0;entryDx=0;entryDy=0;dashed=1;dashPattern=8 8;" edge="1" parent="1" source="9QSZTgEb_2RTZvT8DhTI-394" target="9QSZTgEb_2RTZvT8DhTI-404">
          <mxGeometry width="50" height="50" relative="1" as="geometry">
            <mxPoint x="671" y="920" as="sourcePoint" />
            <mxPoint x="721" y="870" as="targetPoint" />
            <Array as="points">
              <mxPoint x="788" y="872" />
            </Array>
          </mxGeometry>
        </mxCell>
        <mxCell id="9QSZTgEb_2RTZvT8DhTI-417" value="6" style="text;html=1;align=center;verticalAlign=middle;resizable=0;points=[];autosize=1;strokeColor=none;fillColor=none;" vertex="1" parent="1">
          <mxGeometry x="834" y="942" width="25" height="26" as="geometry" />
        </mxCell>
      </root>
    </mxGraphModel>
  </diagram>
</mxfile>
